<?xml version="1.0" encoding="UTF-8"?>
<!DOCTYPE svg PUBLIC "-//W3C//DTD SVG 1.1//EN" "http://www.w3.org/Graphics/SVG/1.1/DTD/svg11.dtd">
<svg xmlns="http://www.w3.org/2000/svg" version="1.1" width="236px" height="86px" style="shape-rendering:geometricPrecision; text-rendering:geometricPrecision; image-rendering:optimizeQuality; fill-rule:evenodd; clip-rule:evenodd" xmlns:xlink="http://www.w3.org/1999/xlink">
<g><path style="opacity:1" fill="#432464" d="M 10.5,6.5 C 30.1695,6.33338 49.8362,6.50005 69.5,7C 70.9308,7.46524 72.0975,8.29857 73,9.5C 74.6198,30.1154 74.9531,50.7821 74,71.5C 73.8371,73.676 73.0037,75.5093 71.5,77C 50.8333,77.6667 30.1667,77.6667 9.5,77C 8.66667,76.1667 7.83333,75.3333 7,74.5C 6.33333,53.1667 6.33333,31.8333 7,10.5C 7.68972,8.64977 8.85639,7.31643 10.5,6.5 Z"/></g>
<g><path style="opacity:1" fill="#f7d00b" d="M 38.5,11.5 C 48.2187,15.8618 57.552,21.0284 66.5,27C 64.0666,28.6324 61.5666,30.1324 59,31.5C 52.597,27.7137 46.097,24.0471 39.5,20.5C 33.4159,24.2926 27.2493,27.9592 21,31.5C 20.1685,39.1883 20.3352,46.855 21.5,54.5C 27.5841,58.2926 33.7507,61.9592 40,65.5C 46.0222,61.3214 52.3555,57.6547 59,54.5C 61.7519,55.5863 64.2519,57.0863 66.5,59C 57.5684,64.0473 48.7351,69.214 40,74.5C 31.186,69.7595 22.5194,64.7595 14,59.5C 13.3333,48.5 13.3333,37.5 14,26.5C 22.3139,21.6001 30.4806,16.6001 38.5,11.5 Z"/></g>
<g><path style="opacity:1" fill="#361d55" d="M 183.5,13.5 C 188.881,13.4517 190.547,15.9517 188.5,21C 181.369,22.2112 179.702,19.7112 183.5,13.5 Z"/></g>
<g><path style="opacity:1" fill="#412267" d="M 165.5,15.5 C 167.5,15.5 169.5,15.5 171.5,15.5C 171.5,29.1667 171.5,42.8333 171.5,56.5C 169.5,56.5 167.5,56.5 165.5,56.5C 165.5,42.8333 165.5,29.1667 165.5,15.5 Z"/></g>
<g><path style="opacity:1" fill="#f4cd0f" d="M 37.5,24.5 C 43.8942,26.2811 49.7275,29.2811 55,33.5C 55.8309,40.1915 55.6642,46.8582 54.5,53.5C 52.5,52.1667 50.5,50.8333 48.5,49.5C 47.6735,45.5408 47.1735,41.5408 47,37.5C 44.6667,35.8333 42.3333,34.1667 40,32.5C 37.1651,33.9164 34.4985,35.583 32,37.5C 31.8265,41.5408 31.3265,45.5408 30.5,49.5C 28.5781,50.711 26.7448,52.0443 25,53.5C 24.1689,46.4763 24.3356,39.4763 25.5,32.5C 29.8128,30.1664 33.8128,27.4997 37.5,24.5 Z"/></g>
<g><path style="opacity:1" fill="#371e58" d="M 104.5,26.5 C 111.094,25.6439 116.927,27.3106 122,31.5C 121.287,37.8911 118.787,38.7244 114.5,34C 102.593,31.2404 98.0927,35.7404 101,47.5C 106.947,52.7376 112.947,52.7376 119,47.5C 123.781,51.4997 122.948,54.3331 116.5,56C 103.234,60.0412 95.2339,55.3745 92.5,42C 93.3645,34.313 97.3645,29.1464 104.5,26.5 Z"/></g>
<g><path style="opacity:1" fill="#391f5b" d="M 157.5,37.5 C 157.5,39.5 157.5,41.5 157.5,43.5C 149.167,43.5 140.833,43.5 132.5,43.5C 132.263,44.791 132.596,45.791 133.5,46.5C 139.503,52.1399 146.003,52.8066 153,48.5C 156.826,49.9692 157.326,52.1359 154.5,55C 144.579,59.4291 135.745,57.9291 128,50.5C 123.325,36.5243 128.325,28.5243 143,26.5C 150.927,26.276 155.76,29.9427 157.5,37.5 Z M 140.5,32.5 C 145.287,32.2266 148.953,34.0599 151.5,38C 145.472,38.8303 139.472,38.6636 133.5,37.5C 135.37,35.0756 137.703,33.4089 140.5,32.5 Z"/></g>
<g><path style="opacity:1" fill="#3a1f5c" d="M 207.5,26.5 C 213.001,25.6395 217.834,26.9729 222,30.5C 222.483,29.552 222.649,28.552 222.5,27.5C 224.5,27.5 226.5,27.5 228.5,27.5C 228.5,37.1667 228.5,46.8333 228.5,56.5C 226.5,56.5 224.5,56.5 222.5,56.5C 222.649,55.448 222.483,54.448 222,53.5C 214.069,59.0628 206.402,58.7295 199,52.5C 193.03,40.7822 195.864,32.1156 207.5,26.5 Z M 210.5,32.5 C 219.697,33.1697 223.197,37.8363 221,46.5C 212.581,54.15 206.414,52.65 202.5,42C 203.595,37.4129 206.262,34.2462 210.5,32.5 Z"/></g>
<g><path style="opacity:1" fill="#412267" d="M 182.5,27.5 C 184.5,27.5 186.5,27.5 188.5,27.5C 188.5,37.1667 188.5,46.8333 188.5,56.5C 186.5,56.5 184.5,56.5 182.5,56.5C 182.5,46.8333 182.5,37.1667 182.5,27.5 Z"/></g>
<g><path style="opacity:1" fill="#f1ca13" d="M 37.5,40.5 C 44.6317,40.7891 46.2983,43.9558 42.5,50C 34.4483,50.1237 32.7817,46.957 37.5,40.5 Z"/></g>
<g><path style="opacity:0.141" fill="#0a0511" d="M 157.5,37.5 C 158.468,39.6074 158.802,41.9407 158.5,44.5C 149.766,43.865 141.433,44.5316 133.5,46.5C 132.596,45.791 132.263,44.791 132.5,43.5C 140.833,43.5 149.167,43.5 157.5,43.5C 157.5,41.5 157.5,39.5 157.5,37.5 Z"/></g>
</svg>



